<svg class="main-svg" xmlns="http://www.w3.org/2000/svg" xmlns:xlink="http://www.w3.org/1999/xlink" width="600" height="400" style="" viewBox="0 0 600 400"><rect x="0" y="0" width="600" height="400" style="fill: rgb(255, 255, 255); fill-opacity: 1;"/><defs id="defs-433dbe"><g class="clips"><clipPath id="clip433dbexyplot" class="plotclip"><rect width="440" height="220"/></clipPath><clipPath class="axesclip" id="clip433dbex"><rect x="80" y="0" width="440" height="400"/></clipPath><clipPath class="axesclip" id="clip433dbey"><rect x="0" y="100" width="600" height="220"/></clipPath><clipPath class="axesclip" id="clip433dbexy"><rect x="80" y="100" width="440" height="220"/></clipPath></g><g class="gradients"/><g class="patterns"/></defs><g class="bglayer"><rect class="bg" x="80" y="100" width="440" height="220" style="fill: rgb(229, 236, 246); fill-opacity: 1; stroke-width: 0;"/></g><g class="layer-below"><g class="imagelayer"/><g class="shapelayer"/></g><g class="cartesianlayer"><g class="subplot xy"><g class="layer-subplot"><g class="shapelayer"/><g class="imagelayer"/></g><g class="minor-gridlayer"><g class="x"/><g class="y"/></g><g class="gridlayer"><g class="x"><path class="xgrid crisp" transform="translate(267.63,0)" d="M0,100v220" style="stroke: rgb(255, 255, 255); stroke-opacity: 1; stroke-width: 1px;"/><path class="xgrid crisp" transform="translate(429.5,0)" d="M0,100v220" style="stroke: rgb(255, 255, 255); stroke-opacity: 1; stroke-width: 1px;"/></g><g class="y"><path class="ygrid crisp" transform="translate(0,294.52)" d="M80,0h440" style="stroke: rgb(255, 255, 255); stroke-opacity: 1; stroke-width: 1px;"/><path class="ygrid crisp" transform="translate(0,234.6)" d="M80,0h440" style="stroke: rgb(255, 255, 255); stroke-opacity: 1; stroke-width: 1px;"/><path class="ygrid crisp" transform="translate(0,174.67000000000002)" d="M80,0h440" style="stroke: rgb(255, 255, 255); stroke-opacity: 1; stroke-width: 1px;"/></g></g><g class="zerolinelayer"><path class="xzl zl crisp" transform="translate(105.75,0)" d="M0,100v220" style="stroke: rgb(255, 255, 255); stroke-opacity: 1; stroke-width: 2px;"/><path class="yzl zl crisp" transform="translate(0,114.75)" d="M80,0h440" style="stroke: rgb(255, 255, 255); stroke-opacity: 1; stroke-width: 2px;"/></g><path class="xlines-below"/><path class="ylines-below"/><g class="overlines-below"/><g class="xaxislayer-below"/><g class="yaxislayer-below"/><g class="overaxes-below"/><g class="plot" transform="translate(80,100)" clip-path="url(#clip433dbexyplot)"><g class="scatterlayer mlayer"><g class="trace scatter trace0f1487" style="stroke-miterlimit: 2; opacity: 1;"><g class="fills"/><g class="errorbars"><g class="errorbar"><path class="yerror" d="M21.75,14.75h8m-4,0V14.75m-4,0h8" style="vector-effect: none; stroke-width: 2px; stroke: rgb(0, 193, 222); stroke-opacity: 1;"/></g><g class="errorbar"><path class="yerror" d="M54.13,49.19h8m-4,0V69.86m-4,0h8" style="vector-effect: none; stroke-width: 2px; stroke: rgb(0, 193, 222); stroke-opacity: 1;"/></g><g class="errorbar"><path class="yerror" d="M86.5,70.42h8m-4,0V92.12m-4,0h8" style="vector-effect: none; stroke-width: 2px; stroke: rgb(0, 193, 222); stroke-opacity: 1;"/></g><g class="errorbar"><path class="yerror" d="M118.88,96h8m-4,0V122.79m-4,0h8" style="vector-effect: none; stroke-width: 2px; stroke: rgb(0, 193, 222); stroke-opacity: 1;"/></g><g class="errorbar"><path class="yerror" d="M151.25,114.14h8m-4,0V139.6m-4,0h8" style="vector-effect: none; stroke-width: 2px; stroke: rgb(0, 193, 222); stroke-opacity: 1;"/></g><g class="errorbar"><path class="yerror" d="M183.63,126.52h8m-4,0V153.86m-4,0h8" style="vector-effect: none; stroke-width: 2px; stroke: rgb(0, 193, 222); stroke-opacity: 1;"/></g><g class="errorbar"><path class="yerror" d="M216,126.83h8m-4,0V158.66m-4,0h8" style="vector-effect: none; stroke-width: 2px; stroke: rgb(0, 193, 222); stroke-opacity: 1;"/></g><g class="errorbar"><path class="yerror" d="M248.38,136.43h8m-4,0V167.6m-4,0h8" style="vector-effect: none; stroke-width: 2px; stroke: rgb(0, 193, 222); stroke-opacity: 1;"/></g><g class="errorbar"><path class="yerror" d="M280.75,152.97h8m-4,0V185.4m-4,0h8" style="vector-effect: none; stroke-width: 2px; stroke: rgb(0, 193, 222); stroke-opacity: 1;"/></g><g class="errorbar"><path class="yerror" d="M410.25,177.05h8m-4,0V209m-4,0h8" style="vector-effect: none; stroke-width: 2px; stroke: rgb(0, 193, 222); stroke-opacity: 1;"/></g></g><g class="lines"><path class="js-line" d="M25.75,14.75L58.13,59.52L90.5,81.27L122.88,109.4L155.25,126.87L187.63,140.19L220,142.74L252.38,152.01L284.75,169.18L414.25,193.03" style="vector-effect: none; fill: none; stroke: rgb(0, 193, 222); stroke-opacity: 1; stroke-width: 2px; opacity: 1;"/></g><g class="points"><path class="point" transform="translate(25.75,14.75)" d="M3,0A3,3 0 1,1 0,-3A3,3 0 0,1 3,0Z" style="opacity: 1; stroke-width: 0px; fill: rgb(0, 193, 222); fill-opacity: 1;"/><path class="point" transform="translate(58.13,59.52)" d="M3,0A3,3 0 1,1 0,-3A3,3 0 0,1 3,0Z" style="opacity: 1; stroke-width: 0px; fill: rgb(0, 193, 222); fill-opacity: 1;"/><path class="point" transform="translate(90.5,81.27)" d="M3,0A3,3 0 1,1 0,-3A3,3 0 0,1 3,0Z" style="opacity: 1; stroke-width: 0px; fill: rgb(0, 193, 222); fill-opacity: 1;"/><path class="point" transform="translate(122.88,109.4)" d="M3,0A3,3 0 1,1 0,-3A3,3 0 0,1 3,0Z" style="opacity: 1; stroke-width: 0px; fill: rgb(0, 193, 222); fill-opacity: 1;"/><path class="point" transform="translate(155.25,126.87)" d="M3,0A3,3 0 1,1 0,-3A3,3 0 0,1 3,0Z" style="opacity: 1; stroke-width: 0px; fill: rgb(0, 193, 222); fill-opacity: 1;"/><path class="point" transform="translate(187.63,140.19)" d="M3,0A3,3 0 1,1 0,-3A3,3 0 0,1 3,0Z" style="opacity: 1; stroke-width: 0px; fill: rgb(0, 193, 222); fill-opacity: 1;"/><path class="point" transform="translate(220,142.74)" d="M3,0A3,3 0 1,1 0,-3A3,3 0 0,1 3,0Z" style="opacity: 1; stroke-width: 0px; fill: rgb(0, 193, 222); fill-opacity: 1;"/><path class="point" transform="translate(252.38,152.01)" d="M3,0A3,3 0 1,1 0,-3A3,3 0 0,1 3,0Z" style="opacity: 1; stroke-width: 0px; fill: rgb(0, 193, 222); fill-opacity: 1;"/><path class="point" transform="translate(284.75,169.18)" d="M3,0A3,3 0 1,1 0,-3A3,3 0 0,1 3,0Z" style="opacity: 1; stroke-width: 0px; fill: rgb(0, 193, 222); fill-opacity: 1;"/><path class="point" transform="translate(414.25,193.03)" d="M3,0A3,3 0 1,1 0,-3A3,3 0 0,1 3,0Z" style="opacity: 1; stroke-width: 0px; fill: rgb(0, 193, 222); fill-opacity: 1;"/></g><g class="text"/></g><g class="trace scatter trace9ffc46" style="stroke-miterlimit: 2; opacity: 1;"><g class="fills"/><g class="errorbars"><g class="errorbar"><path class="yerror" d="M21.75,14.75h8m-4,0V14.75m-4,0h8" style="vector-effect: none; stroke-width: 2px; stroke: rgb(138, 132, 214); stroke-opacity: 1;"/></g><g class="errorbar"><path class="yerror" d="M54.13,46.64h8m-4,0V62.95m-4,0h8" style="vector-effect: none; stroke-width: 2px; stroke: rgb(138, 132, 214); stroke-opacity: 1;"/></g><g class="errorbar"><path class="yerror" d="M86.5,64.07h8m-4,0V82.79m-4,0h8" style="vector-effect: none; stroke-width: 2px; stroke: rgb(138, 132, 214); stroke-opacity: 1;"/></g><g class="errorbar"><path class="yerror" d="M118.88,74.24h8m-4,0V95.6m-4,0h8" style="vector-effect: none; stroke-width: 2px; stroke: rgb(138, 132, 214); stroke-opacity: 1;"/></g><g class="errorbar"><path class="yerror" d="M151.25,75.95h8m-4,0V99.11m-4,0h8" style="vector-effect: none; stroke-width: 2px; stroke: rgb(138, 132, 214); stroke-opacity: 1;"/></g><g class="errorbar"><path class="yerror" d="M183.63,83.71h8m-4,0V107.2m-4,0h8" style="vector-effect: none; stroke-width: 2px; stroke: rgb(138, 132, 214); stroke-opacity: 1;"/></g><g class="errorbar"><path class="yerror" d="M216,76.07h8m-4,0V99.37m-4,0h8" style="vector-effect: none; stroke-width: 2px; stroke: rgb(138, 132, 214); stroke-opacity: 1;"/></g><g class="errorbar"><path class="yerror" d="M248.38,84.33h8m-4,0V107.61m-4,0h8" style="vector-effect: none; stroke-width: 2px; stroke: rgb(138, 132, 214); stroke-opacity: 1;"/></g><g class="errorbar"><path class="yerror" d="M280.75,91.17h8m-4,0V117.52m-4,0h8" style="vector-effect: none; stroke-width: 2px; stroke: rgb(138, 132, 214); stroke-opacity: 1;"/></g><g class="errorbar"><path class="yerror" d="M410.25,94.86h8m-4,0V121.05m-4,0h8" style="vector-effect: none; stroke-width: 2px; stroke: rgb(138, 132, 214); stroke-opacity: 1;"/></g></g><g class="lines"><path class="js-line" d="M25.75,14.75L58.13,54.8L90.5,73.43L122.88,84.92L155.25,87.53L187.63,95.46L220,87.72L284.75,104.35L414.25,107.96" style="vector-effect: none; fill: none; stroke: rgb(138, 132, 214); stroke-opacity: 1; stroke-width: 2px; opacity: 1;"/></g><g class="points"><path class="point" transform="translate(25.75,14.75)" d="M3,0A3,3 0 1,1 0,-3A3,3 0 0,1 3,0Z" style="opacity: 1; stroke-width: 0px; fill: rgb(138, 132, 214); fill-opacity: 1;"/><path class="point" transform="translate(58.13,54.8)" d="M3,0A3,3 0 1,1 0,-3A3,3 0 0,1 3,0Z" style="opacity: 1; stroke-width: 0px; fill: rgb(138, 132, 214); fill-opacity: 1;"/><path class="point" transform="translate(90.5,73.43)" d="M3,0A3,3 0 1,1 0,-3A3,3 0 0,1 3,0Z" style="opacity: 1; stroke-width: 0px; fill: rgb(138, 132, 214); fill-opacity: 1;"/><path class="point" transform="translate(122.88,84.92)" d="M3,0A3,3 0 1,1 0,-3A3,3 0 0,1 3,0Z" style="opacity: 1; stroke-width: 0px; fill: rgb(138, 132, 214); fill-opacity: 1;"/><path class="point" transform="translate(155.25,87.53)" d="M3,0A3,3 0 1,1 0,-3A3,3 0 0,1 3,0Z" style="opacity: 1; stroke-width: 0px; fill: rgb(138, 132, 214); fill-opacity: 1;"/><path class="point" transform="translate(187.63,95.46)" d="M3,0A3,3 0 1,1 0,-3A3,3 0 0,1 3,0Z" style="opacity: 1; stroke-width: 0px; fill: rgb(138, 132, 214); fill-opacity: 1;"/><path class="point" transform="translate(220,87.72)" d="M3,0A3,3 0 1,1 0,-3A3,3 0 0,1 3,0Z" style="opacity: 1; stroke-width: 0px; fill: rgb(138, 132, 214); fill-opacity: 1;"/><path class="point" transform="translate(252.38,95.97)" d="M3,0A3,3 0 1,1 0,-3A3,3 0 0,1 3,0Z" style="opacity: 1; stroke-width: 0px; fill: rgb(138, 132, 214); fill-opacity: 1;"/><path class="point" transform="translate(284.75,104.35)" d="M3,0A3,3 0 1,1 0,-3A3,3 0 0,1 3,0Z" style="opacity: 1; stroke-width: 0px; fill: rgb(138, 132, 214); fill-opacity: 1;"/><path class="point" transform="translate(414.25,107.96)" d="M3,0A3,3 0 1,1 0,-3A3,3 0 0,1 3,0Z" style="opacity: 1; stroke-width: 0px; fill: rgb(138, 132, 214); fill-opacity: 1;"/></g><g class="text"/></g></g></g><g class="overplot"/><path class="xlines-above crisp" d="M0,0" style="fill: none;"/><path class="ylines-above crisp" d="M0,0" style="fill: none;"/><g class="overlines-above"/><g class="xaxislayer-above"><g class="xtick"><text text-anchor="middle" x="0" y="333" transform="translate(105.75,0)" style="font-family: Geomanist; font-size: 12px; fill: rgb(42, 63, 95); fill-opacity: 1; white-space: pre; opacity: 1;">0</text></g><g class="xtick"><text text-anchor="middle" x="0" y="333" style="font-family: Geomanist; font-size: 12px; fill: rgb(42, 63, 95); fill-opacity: 1; white-space: pre; opacity: 1;" transform="translate(267.63,0)">5</text></g><g class="xtick"><text text-anchor="middle" x="0" y="333" style="font-family: Geomanist; font-size: 12px; fill: rgb(42, 63, 95); fill-opacity: 1; white-space: pre; opacity: 1;" transform="translate(429.5,0)">10</text></g></g><g class="yaxislayer-above"><g class="ytick"><text text-anchor="end" x="79" y="4.199999999999999" transform="translate(0,294.52)" style="font-family: Geomanist; font-size: 12px; fill: rgb(42, 63, 95); fill-opacity: 1; white-space: pre; opacity: 1;">−15</text></g><g class="ytick"><text text-anchor="end" x="79" y="4.199999999999999" style="font-family: Geomanist; font-size: 12px; fill: rgb(42, 63, 95); fill-opacity: 1; white-space: pre; opacity: 1;" transform="translate(0,234.6)">−10</text></g><g class="ytick"><text text-anchor="end" x="79" y="4.199999999999999" style="font-family: Geomanist; font-size: 12px; fill: rgb(42, 63, 95); fill-opacity: 1; white-space: pre; opacity: 1;" transform="translate(0,174.67000000000002)">−5</text></g><g class="ytick"><text text-anchor="end" x="79" y="4.199999999999999" style="font-family: Geomanist; font-size: 12px; fill: rgb(42, 63, 95); fill-opacity: 1; white-space: pre; opacity: 1;" transform="translate(0,114.75)">0</text></g></g><g class="overaxes-above"/></g></g><g class="polarlayer"/><g class="smithlayer"/><g class="ternarylayer"/><g class="geolayer"/><g class="funnelarealayer"/><g class="pielayer"/><g class="iciclelayer"/><g class="treemaplayer"/><g class="sunburstlayer"/><g class="glimages"/><defs id="topdefs-433dbe"><g class="clips"/></defs><g class="layer-above"><g class="imagelayer"/><g class="shapelayer"/></g><g class="infolayer"><g class="g-gtitle"><text class="gtitle" x="30" y="50" text-anchor="start" dy="0em" style="font-family: Geomanist; font-size: 17px; fill: rgb(42, 63, 95); opacity: 1; font-weight: normal; white-space: pre;">RCT #2: SPIN</text></g><g class="g-xtitle"><text class="xtitle" x="300" y="360.3" text-anchor="middle" style="font-family: Geomanist; font-size: 14px; fill: rgb(42, 63, 95); opacity: 1; font-weight: normal; white-space: pre;">Week</text></g><g class="g-ytitle"><text class="ytitle" transform="rotate(-90,37.403125,210)" x="37.403125" y="210" text-anchor="middle" style="font-family: Geomanist; font-size: 14px; fill: rgb(42, 63, 95); opacity: 1; font-weight: normal; white-space: pre;">Mean score</text></g></g></svg>