<svg class="main-svg" xmlns="http://www.w3.org/2000/svg" xmlns:xlink="http://www.w3.org/1999/xlink" width="600" height="400" style="" viewBox="0 0 600 400"><rect x="0" y="0" width="600" height="400" style="fill: rgb(255, 255, 255); fill-opacity: 1;"/><defs id="defs-8ad591"><g class="clips"><clipPath id="clip8ad591xyplot" class="plotclip"><rect width="440" height="220"/></clipPath><clipPath class="axesclip" id="clip8ad591x"><rect x="80" y="0" width="440" height="400"/></clipPath><clipPath class="axesclip" id="clip8ad591y"><rect x="0" y="100" width="600" height="220"/></clipPath><clipPath class="axesclip" id="clip8ad591xy"><rect x="80" y="100" width="440" height="220"/></clipPath></g><g class="gradients"/><g class="patterns"/></defs><g class="bglayer"><rect class="bg" x="80" y="100" width="440" height="220" style="fill: rgb(229, 236, 246); fill-opacity: 1; stroke-width: 0;"/></g><g class="layer-below"><g class="imagelayer"/><g class="shapelayer"/></g><g class="cartesianlayer"><g class="subplot xy"><g class="layer-subplot"><g class="shapelayer"/><g class="imagelayer"/></g><g class="minor-gridlayer"><g class="x"/><g class="y"/></g><g class="gridlayer"><g class="x"><path class="xgrid crisp" transform="translate(235.25,0)" d="M0,100v220" style="stroke: rgb(255, 255, 255); stroke-opacity: 1; stroke-width: 1px;"/><path class="xgrid crisp" transform="translate(364.75,0)" d="M0,100v220" style="stroke: rgb(255, 255, 255); stroke-opacity: 1; stroke-width: 1px;"/><path class="xgrid crisp" transform="translate(494.25,0)" d="M0,100v220" style="stroke: rgb(255, 255, 255); stroke-opacity: 1; stroke-width: 1px;"/></g><g class="y"><path class="ygrid crisp" transform="translate(0,294.27)" d="M80,0h440" style="stroke: rgb(255, 255, 255); stroke-opacity: 1; stroke-width: 1px;"/><path class="ygrid crisp" transform="translate(0,258.37)" d="M80,0h440" style="stroke: rgb(255, 255, 255); stroke-opacity: 1; stroke-width: 1px;"/><path class="ygrid crisp" transform="translate(0,222.45999999999998)" d="M80,0h440" style="stroke: rgb(255, 255, 255); stroke-opacity: 1; stroke-width: 1px;"/><path class="ygrid crisp" transform="translate(0,186.56)" d="M80,0h440" style="stroke: rgb(255, 255, 255); stroke-opacity: 1; stroke-width: 1px;"/><path class="ygrid crisp" transform="translate(0,150.65)" d="M80,0h440" style="stroke: rgb(255, 255, 255); stroke-opacity: 1; stroke-width: 1px;"/></g></g><g class="zerolinelayer"><path class="xzl zl crisp" transform="translate(105.75,0)" d="M0,100v220" style="stroke: rgb(255, 255, 255); stroke-opacity: 1; stroke-width: 2px;"/><path class="yzl zl crisp" transform="translate(0,114.75)" d="M80,0h440" style="stroke: rgb(255, 255, 255); stroke-opacity: 1; stroke-width: 2px;"/></g><path class="xlines-below"/><path class="ylines-below"/><g class="overlines-below"/><g class="xaxislayer-below"/><g class="yaxislayer-below"/><g class="overaxes-below"/><g class="plot" transform="translate(80,100)" clip-path="url(#clip8ad591xyplot)"><g class="scatterlayer mlayer"><g class="trace scatter trace17b757" style="stroke-miterlimit: 2; opacity: 1;"><g class="fills"/><g class="errorbars"><g class="errorbar"><path class="yerror" d="M21.75,14.75h8m-4,0V14.75m-4,0h8" style="vector-effect: none; stroke-width: 2px; stroke: rgb(0, 193, 222); stroke-opacity: 1;"/></g><g class="errorbar"><path class="yerror" d="M86.5,42.65h8m-4,0V93.13m-4,0h8" style="vector-effect: none; stroke-width: 2px; stroke: rgb(0, 193, 222); stroke-opacity: 1;"/></g><g class="errorbar"><path class="yerror" d="M151.25,105.91h8m-4,0V165.77m-4,0h8" style="vector-effect: none; stroke-width: 2px; stroke: rgb(0, 193, 222); stroke-opacity: 1;"/></g><g class="errorbar"><path class="yerror" d="M216,111.52h8m-4,0V173.62m-4,0h8" style="vector-effect: none; stroke-width: 2px; stroke: rgb(0, 193, 222); stroke-opacity: 1;"/></g><g class="errorbar"><path class="yerror" d="M280.75,145.93h8m-4,0V209m-4,0h8" style="vector-effect: none; stroke-width: 2px; stroke: rgb(0, 193, 222); stroke-opacity: 1;"/></g><g class="errorbar"><path class="yerror" d="M410.25,121.14h8m-4,0V192.4m-4,0h8" style="vector-effect: none; stroke-width: 2px; stroke: rgb(0, 193, 222); stroke-opacity: 1;"/></g></g><g class="lines"><path class="js-line" d="M25.75,14.75L90.5,67.89L155.25,135.84L220,142.57L284.75,177.47L414.25,156.77" style="vector-effect: none; fill: none; stroke: rgb(0, 193, 222); stroke-opacity: 1; stroke-width: 2px; opacity: 1;"/></g><g class="points"><path class="point" transform="translate(25.75,14.75)" d="M3,0A3,3 0 1,1 0,-3A3,3 0 0,1 3,0Z" style="opacity: 1; stroke-width: 0px; fill: rgb(0, 193, 222); fill-opacity: 1;"/><path class="point" transform="translate(90.5,67.89)" d="M3,0A3,3 0 1,1 0,-3A3,3 0 0,1 3,0Z" style="opacity: 1; stroke-width: 0px; fill: rgb(0, 193, 222); fill-opacity: 1;"/><path class="point" transform="translate(155.25,135.84)" d="M3,0A3,3 0 1,1 0,-3A3,3 0 0,1 3,0Z" style="opacity: 1; stroke-width: 0px; fill: rgb(0, 193, 222); fill-opacity: 1;"/><path class="point" transform="translate(220,142.57)" d="M3,0A3,3 0 1,1 0,-3A3,3 0 0,1 3,0Z" style="opacity: 1; stroke-width: 0px; fill: rgb(0, 193, 222); fill-opacity: 1;"/><path class="point" transform="translate(284.75,177.47)" d="M3,0A3,3 0 1,1 0,-3A3,3 0 0,1 3,0Z" style="opacity: 1; stroke-width: 0px; fill: rgb(0, 193, 222); fill-opacity: 1;"/><path class="point" transform="translate(414.25,156.77)" d="M3,0A3,3 0 1,1 0,-3A3,3 0 0,1 3,0Z" style="opacity: 1; stroke-width: 0px; fill: rgb(0, 193, 222); fill-opacity: 1;"/></g><g class="text"/></g><g class="trace scatter tracedc5b97" style="stroke-miterlimit: 2; opacity: 1;"><g class="fills"/><g class="errorbars"><g class="errorbar"><path class="yerror" d="M21.75,14.75h8m-4,0V14.75m-4,0h8" style="vector-effect: none; stroke-width: 2px; stroke: rgb(138, 132, 214); stroke-opacity: 1;"/></g><g class="errorbar"><path class="yerror" d="M86.5,18.95h8m-4,0V70.87m-4,0h8" style="vector-effect: none; stroke-width: 2px; stroke: rgb(138, 132, 214); stroke-opacity: 1;"/></g><g class="errorbar"><path class="yerror" d="M151.25,66.83h8m-4,0V127.84m-4,0h8" style="vector-effect: none; stroke-width: 2px; stroke: rgb(138, 132, 214); stroke-opacity: 1;"/></g><g class="errorbar"><path class="yerror" d="M216,42.1h8m-4,0V105.16m-4,0h8" style="vector-effect: none; stroke-width: 2px; stroke: rgb(138, 132, 214); stroke-opacity: 1;"/></g><g class="errorbar"><path class="yerror" d="M280.75,58.39h8m-4,0V119.52m-4,0h8" style="vector-effect: none; stroke-width: 2px; stroke: rgb(138, 132, 214); stroke-opacity: 1;"/></g><g class="errorbar"><path class="yerror" d="M410.25,100.13h8m-4,0V164.38m-4,0h8" style="vector-effect: none; stroke-width: 2px; stroke: rgb(138, 132, 214); stroke-opacity: 1;"/></g></g><g class="lines"><path class="js-line" d="M25.75,14.75L90.5,44.91L155.25,97.33L220,73.63L284.75,88.95L414.25,132.26" style="vector-effect: none; fill: none; stroke: rgb(138, 132, 214); stroke-opacity: 1; stroke-width: 2px; opacity: 1;"/></g><g class="points"><path class="point" transform="translate(25.75,14.75)" d="M3,0A3,3 0 1,1 0,-3A3,3 0 0,1 3,0Z" style="opacity: 1; stroke-width: 0px; fill: rgb(138, 132, 214); fill-opacity: 1;"/><path class="point" transform="translate(90.5,44.91)" d="M3,0A3,3 0 1,1 0,-3A3,3 0 0,1 3,0Z" style="opacity: 1; stroke-width: 0px; fill: rgb(138, 132, 214); fill-opacity: 1;"/><path class="point" transform="translate(155.25,97.33)" d="M3,0A3,3 0 1,1 0,-3A3,3 0 0,1 3,0Z" style="opacity: 1; stroke-width: 0px; fill: rgb(138, 132, 214); fill-opacity: 1;"/><path class="point" transform="translate(220,73.63)" d="M3,0A3,3 0 1,1 0,-3A3,3 0 0,1 3,0Z" style="opacity: 1; stroke-width: 0px; fill: rgb(138, 132, 214); fill-opacity: 1;"/><path class="point" transform="translate(284.75,88.95)" d="M3,0A3,3 0 1,1 0,-3A3,3 0 0,1 3,0Z" style="opacity: 1; stroke-width: 0px; fill: rgb(138, 132, 214); fill-opacity: 1;"/><path class="point" transform="translate(414.25,132.26)" d="M3,0A3,3 0 1,1 0,-3A3,3 0 0,1 3,0Z" style="opacity: 1; stroke-width: 0px; fill: rgb(138, 132, 214); fill-opacity: 1;"/></g><g class="text"/></g></g></g><g class="overplot"/><path class="xlines-above crisp" d="M0,0" style="fill: none;"/><path class="ylines-above crisp" d="M0,0" style="fill: none;"/><g class="overlines-above"/><g class="xaxislayer-above"><g class="xtick"><text text-anchor="middle" x="0" y="333" transform="translate(105.75,0)" style="font-family: Geomanist; font-size: 12px; fill: rgb(42, 63, 95); fill-opacity: 1; white-space: pre; opacity: 1;">0</text></g><g class="xtick"><text text-anchor="middle" x="0" y="333" style="font-family: Geomanist; font-size: 12px; fill: rgb(42, 63, 95); fill-opacity: 1; white-space: pre; opacity: 1;" transform="translate(235.25,0)">2</text></g><g class="xtick"><text text-anchor="middle" x="0" y="333" style="font-family: Geomanist; font-size: 12px; fill: rgb(42, 63, 95); fill-opacity: 1; white-space: pre; opacity: 1;" transform="translate(364.75,0)">4</text></g><g class="xtick"><text text-anchor="middle" x="0" y="333" style="font-family: Geomanist; font-size: 12px; fill: rgb(42, 63, 95); fill-opacity: 1; white-space: pre; opacity: 1;" transform="translate(494.25,0)">6</text></g></g><g class="yaxislayer-above"><g class="ytick"><text text-anchor="end" x="79" y="4.199999999999999" transform="translate(0,294.27)" style="font-family: Geomanist; font-size: 12px; fill: rgb(42, 63, 95); fill-opacity: 1; white-space: pre; opacity: 1;">−5</text></g><g class="ytick"><text text-anchor="end" x="79" y="4.199999999999999" style="font-family: Geomanist; font-size: 12px; fill: rgb(42, 63, 95); fill-opacity: 1; white-space: pre; opacity: 1;" transform="translate(0,258.37)">−4</text></g><g class="ytick"><text text-anchor="end" x="79" y="4.199999999999999" style="font-family: Geomanist; font-size: 12px; fill: rgb(42, 63, 95); fill-opacity: 1; white-space: pre; opacity: 1;" transform="translate(0,222.45999999999998)">−3</text></g><g class="ytick"><text text-anchor="end" x="79" y="4.199999999999999" style="font-family: Geomanist; font-size: 12px; fill: rgb(42, 63, 95); fill-opacity: 1; white-space: pre; opacity: 1;" transform="translate(0,186.56)">−2</text></g><g class="ytick"><text text-anchor="end" x="79" y="4.199999999999999" style="font-family: Geomanist; font-size: 12px; fill: rgb(42, 63, 95); fill-opacity: 1; white-space: pre; opacity: 1;" transform="translate(0,150.65)">−1</text></g><g class="ytick"><text text-anchor="end" x="79" y="4.199999999999999" style="font-family: Geomanist; font-size: 12px; fill: rgb(42, 63, 95); fill-opacity: 1; white-space: pre; opacity: 1;" transform="translate(0,114.75)">0</text></g></g><g class="overaxes-above"/></g></g><g class="polarlayer"/><g class="smithlayer"/><g class="ternarylayer"/><g class="geolayer"/><g class="funnelarealayer"/><g class="pielayer"/><g class="iciclelayer"/><g class="treemaplayer"/><g class="sunburstlayer"/><g class="glimages"/><defs id="topdefs-8ad591"><g class="clips"/></defs><g class="layer-above"><g class="imagelayer"/><g class="shapelayer"/></g><g class="infolayer"><g class="g-gtitle"><text class="gtitle" x="30" y="50" text-anchor="start" dy="0em" style="font-family: Geomanist; font-size: 17px; fill: rgb(42, 63, 95); opacity: 1; font-weight: normal; white-space: pre;">RCT #1: WSAS</text></g><g class="g-xtitle"><text class="xtitle" x="300" y="360.3" text-anchor="middle" style="font-family: Geomanist; font-size: 14px; fill: rgb(42, 63, 95); opacity: 1; font-weight: normal; white-space: pre;">Week</text></g><g class="g-ytitle"><text class="ytitle" transform="rotate(-90,41.2,210)" x="41.2" y="210" text-anchor="middle" style="font-family: Geomanist; font-size: 14px; fill: rgb(42, 63, 95); opacity: 1; font-weight: normal; white-space: pre;">Mean score</text></g></g></svg>