<svg class="main-svg" xmlns="http://www.w3.org/2000/svg" xmlns:xlink="http://www.w3.org/1999/xlink" width="600" height="400" style="" viewBox="0 0 600 400"><rect x="0" y="0" width="600" height="400" style="fill: rgb(255, 255, 255); fill-opacity: 1;"/><defs id="defs-202d6e"><g class="clips"><clipPath id="clip202d6exyplot" class="plotclip"><rect width="440" height="220"/></clipPath><clipPath class="axesclip" id="clip202d6ex"><rect x="80" y="0" width="440" height="400"/></clipPath><clipPath class="axesclip" id="clip202d6ey"><rect x="0" y="100" width="600" height="220"/></clipPath><clipPath class="axesclip" id="clip202d6exy"><rect x="80" y="100" width="440" height="220"/></clipPath></g><g class="gradients"/><g class="patterns"/></defs><g class="bglayer"><rect class="bg" x="80" y="100" width="440" height="220" style="fill: rgb(229, 236, 246); fill-opacity: 1; stroke-width: 0;"/></g><g class="layer-below"><g class="imagelayer"/><g class="shapelayer"/></g><g class="cartesianlayer"><g class="subplot xy"><g class="layer-subplot"><g class="shapelayer"/><g class="imagelayer"/></g><g class="minor-gridlayer"><g class="x"/><g class="y"/></g><g class="gridlayer"><g class="x"><path class="xgrid crisp" transform="translate(267.63,0)" d="M0,100v220" style="stroke: rgb(255, 255, 255); stroke-opacity: 1; stroke-width: 1px;"/><path class="xgrid crisp" transform="translate(429.5,0)" d="M0,100v220" style="stroke: rgb(255, 255, 255); stroke-opacity: 1; stroke-width: 1px;"/></g><g class="y"><path class="ygrid crisp" transform="translate(0,308.94)" d="M80,0h440" style="stroke: rgb(255, 255, 255); stroke-opacity: 1; stroke-width: 1px;"/><path class="ygrid crisp" transform="translate(0,244.21)" d="M80,0h440" style="stroke: rgb(255, 255, 255); stroke-opacity: 1; stroke-width: 1px;"/><path class="ygrid crisp" transform="translate(0,179.48000000000002)" d="M80,0h440" style="stroke: rgb(255, 255, 255); stroke-opacity: 1; stroke-width: 1px;"/></g></g><g class="zerolinelayer"><path class="xzl zl crisp" transform="translate(105.75,0)" d="M0,100v220" style="stroke: rgb(255, 255, 255); stroke-opacity: 1; stroke-width: 2px;"/><path class="yzl zl crisp" transform="translate(0,114.75)" d="M80,0h440" style="stroke: rgb(255, 255, 255); stroke-opacity: 1; stroke-width: 2px;"/></g><path class="xlines-below"/><path class="ylines-below"/><g class="overlines-below"/><g class="xaxislayer-below"/><g class="yaxislayer-below"/><g class="overaxes-below"/><g class="plot" transform="translate(80,100)" clip-path="url(#clip202d6exyplot)"><g class="scatterlayer mlayer"><g class="trace scatter traceacc749" style="stroke-miterlimit: 2; opacity: 1;"><g class="fills"/><g class="errorbars"><g class="errorbar"><path class="yerror" d="M21.75,14.75h8m-4,0V14.75m-4,0h8" style="vector-effect: none; stroke-width: 2px; stroke: rgb(0, 193, 222); stroke-opacity: 1;"/></g><g class="errorbar"><path class="yerror" d="M54.13,29.08h8m-4,0V66.37m-4,0h8" style="vector-effect: none; stroke-width: 2px; stroke: rgb(0, 193, 222); stroke-opacity: 1;"/></g><g class="errorbar"><path class="yerror" d="M86.5,72.26h8m-4,0V112.23m-4,0h8" style="vector-effect: none; stroke-width: 2px; stroke: rgb(0, 193, 222); stroke-opacity: 1;"/></g><g class="errorbar"><path class="yerror" d="M118.88,89.3h8m-4,0V131.96m-4,0h8" style="vector-effect: none; stroke-width: 2px; stroke: rgb(0, 193, 222); stroke-opacity: 1;"/></g><g class="errorbar"><path class="yerror" d="M151.25,100.7h8m-4,0V145.37m-4,0h8" style="vector-effect: none; stroke-width: 2px; stroke: rgb(0, 193, 222); stroke-opacity: 1;"/></g><g class="errorbar"><path class="yerror" d="M183.63,105.19h8m-4,0V150.55m-4,0h8" style="vector-effect: none; stroke-width: 2px; stroke: rgb(0, 193, 222); stroke-opacity: 1;"/></g><g class="errorbar"><path class="yerror" d="M216,123.23h8m-4,0V169.58m-4,0h8" style="vector-effect: none; stroke-width: 2px; stroke: rgb(0, 193, 222); stroke-opacity: 1;"/></g><g class="errorbar"><path class="yerror" d="M248.38,124.21h8m-4,0V172.75m-4,0h8" style="vector-effect: none; stroke-width: 2px; stroke: rgb(0, 193, 222); stroke-opacity: 1;"/></g><g class="errorbar"><path class="yerror" d="M280.75,126.36h8m-4,0V178.08m-4,0h8" style="vector-effect: none; stroke-width: 2px; stroke: rgb(0, 193, 222); stroke-opacity: 1;"/></g><g class="errorbar"><path class="yerror" d="M410.25,159.08h8m-4,0V209m-4,0h8" style="vector-effect: none; stroke-width: 2px; stroke: rgb(0, 193, 222); stroke-opacity: 1;"/></g></g><g class="lines"><path class="js-line" d="M25.75,14.75L58.13,47.73L90.5,92.25L122.88,110.63L155.25,123.04L187.63,127.87L220,146.41L252.38,148.48L284.75,152.22L414.25,184.04" style="vector-effect: none; fill: none; stroke: rgb(0, 193, 222); stroke-opacity: 1; stroke-width: 2px; opacity: 1;"/></g><g class="points"><path class="point" transform="translate(25.75,14.75)" d="M3,0A3,3 0 1,1 0,-3A3,3 0 0,1 3,0Z" style="opacity: 1; stroke-width: 0px; fill: rgb(0, 193, 222); fill-opacity: 1;"/><path class="point" transform="translate(58.13,47.73)" d="M3,0A3,3 0 1,1 0,-3A3,3 0 0,1 3,0Z" style="opacity: 1; stroke-width: 0px; fill: rgb(0, 193, 222); fill-opacity: 1;"/><path class="point" transform="translate(90.5,92.25)" d="M3,0A3,3 0 1,1 0,-3A3,3 0 0,1 3,0Z" style="opacity: 1; stroke-width: 0px; fill: rgb(0, 193, 222); fill-opacity: 1;"/><path class="point" transform="translate(122.88,110.63)" d="M3,0A3,3 0 1,1 0,-3A3,3 0 0,1 3,0Z" style="opacity: 1; stroke-width: 0px; fill: rgb(0, 193, 222); fill-opacity: 1;"/><path class="point" transform="translate(155.25,123.04)" d="M3,0A3,3 0 1,1 0,-3A3,3 0 0,1 3,0Z" style="opacity: 1; stroke-width: 0px; fill: rgb(0, 193, 222); fill-opacity: 1;"/><path class="point" transform="translate(187.63,127.87)" d="M3,0A3,3 0 1,1 0,-3A3,3 0 0,1 3,0Z" style="opacity: 1; stroke-width: 0px; fill: rgb(0, 193, 222); fill-opacity: 1;"/><path class="point" transform="translate(220,146.41)" d="M3,0A3,3 0 1,1 0,-3A3,3 0 0,1 3,0Z" style="opacity: 1; stroke-width: 0px; fill: rgb(0, 193, 222); fill-opacity: 1;"/><path class="point" transform="translate(252.38,148.48)" d="M3,0A3,3 0 1,1 0,-3A3,3 0 0,1 3,0Z" style="opacity: 1; stroke-width: 0px; fill: rgb(0, 193, 222); fill-opacity: 1;"/><path class="point" transform="translate(284.75,152.22)" d="M3,0A3,3 0 1,1 0,-3A3,3 0 0,1 3,0Z" style="opacity: 1; stroke-width: 0px; fill: rgb(0, 193, 222); fill-opacity: 1;"/><path class="point" transform="translate(414.25,184.04)" d="M3,0A3,3 0 1,1 0,-3A3,3 0 0,1 3,0Z" style="opacity: 1; stroke-width: 0px; fill: rgb(0, 193, 222); fill-opacity: 1;"/></g><g class="text"/></g><g class="trace scatter tracea0f5f3" style="stroke-miterlimit: 2; opacity: 1;"><g class="fills"/><g class="errorbars"><g class="errorbar"><path class="yerror" d="M21.75,14.75h8m-4,0V14.75m-4,0h8" style="vector-effect: none; stroke-width: 2px; stroke: rgb(138, 132, 214); stroke-opacity: 1;"/></g><g class="errorbar"><path class="yerror" d="M54.13,29.27h8m-4,0V64.96m-4,0h8" style="vector-effect: none; stroke-width: 2px; stroke: rgb(138, 132, 214); stroke-opacity: 1;"/></g><g class="errorbar"><path class="yerror" d="M86.5,59.61h8m-4,0V98.83m-4,0h8" style="vector-effect: none; stroke-width: 2px; stroke: rgb(138, 132, 214); stroke-opacity: 1;"/></g><g class="errorbar"><path class="yerror" d="M118.88,69.11h8m-4,0V110.21m-4,0h8" style="vector-effect: none; stroke-width: 2px; stroke: rgb(138, 132, 214); stroke-opacity: 1;"/></g><g class="errorbar"><path class="yerror" d="M151.25,76.05h8m-4,0V115.27m-4,0h8" style="vector-effect: none; stroke-width: 2px; stroke: rgb(138, 132, 214); stroke-opacity: 1;"/></g><g class="errorbar"><path class="yerror" d="M183.63,78.49h8m-4,0V120.14m-4,0h8" style="vector-effect: none; stroke-width: 2px; stroke: rgb(138, 132, 214); stroke-opacity: 1;"/></g><g class="errorbar"><path class="yerror" d="M216,63.05h8m-4,0V104.78m-4,0h8" style="vector-effect: none; stroke-width: 2px; stroke: rgb(138, 132, 214); stroke-opacity: 1;"/></g><g class="errorbar"><path class="yerror" d="M248.38,72.45h8m-4,0V112.18m-4,0h8" style="vector-effect: none; stroke-width: 2px; stroke: rgb(138, 132, 214); stroke-opacity: 1;"/></g><g class="errorbar"><path class="yerror" d="M280.75,93.82h8m-4,0V133m-4,0h8" style="vector-effect: none; stroke-width: 2px; stroke: rgb(138, 132, 214); stroke-opacity: 1;"/></g><g class="errorbar"><path class="yerror" d="M410.25,100.26h8m-4,0V140.55m-4,0h8" style="vector-effect: none; stroke-width: 2px; stroke: rgb(138, 132, 214); stroke-opacity: 1;"/></g></g><g class="lines"><path class="js-line" d="M25.75,14.75L90.5,79.22L122.88,89.66L155.25,95.66L187.63,99.32L220,83.92L252.38,92.32L284.75,113.41L414.25,120.4" style="vector-effect: none; fill: none; stroke: rgb(138, 132, 214); stroke-opacity: 1; stroke-width: 2px; opacity: 1;"/></g><g class="points"><path class="point" transform="translate(25.75,14.75)" d="M3,0A3,3 0 1,1 0,-3A3,3 0 0,1 3,0Z" style="opacity: 1; stroke-width: 0px; fill: rgb(138, 132, 214); fill-opacity: 1;"/><path class="point" transform="translate(58.13,47.11)" d="M3,0A3,3 0 1,1 0,-3A3,3 0 0,1 3,0Z" style="opacity: 1; stroke-width: 0px; fill: rgb(138, 132, 214); fill-opacity: 1;"/><path class="point" transform="translate(90.5,79.22)" d="M3,0A3,3 0 1,1 0,-3A3,3 0 0,1 3,0Z" style="opacity: 1; stroke-width: 0px; fill: rgb(138, 132, 214); fill-opacity: 1;"/><path class="point" transform="translate(122.88,89.66)" d="M3,0A3,3 0 1,1 0,-3A3,3 0 0,1 3,0Z" style="opacity: 1; stroke-width: 0px; fill: rgb(138, 132, 214); fill-opacity: 1;"/><path class="point" transform="translate(155.25,95.66)" d="M3,0A3,3 0 1,1 0,-3A3,3 0 0,1 3,0Z" style="opacity: 1; stroke-width: 0px; fill: rgb(138, 132, 214); fill-opacity: 1;"/><path class="point" transform="translate(187.63,99.32)" d="M3,0A3,3 0 1,1 0,-3A3,3 0 0,1 3,0Z" style="opacity: 1; stroke-width: 0px; fill: rgb(138, 132, 214); fill-opacity: 1;"/><path class="point" transform="translate(220,83.92)" d="M3,0A3,3 0 1,1 0,-3A3,3 0 0,1 3,0Z" style="opacity: 1; stroke-width: 0px; fill: rgb(138, 132, 214); fill-opacity: 1;"/><path class="point" transform="translate(252.38,92.32)" d="M3,0A3,3 0 1,1 0,-3A3,3 0 0,1 3,0Z" style="opacity: 1; stroke-width: 0px; fill: rgb(138, 132, 214); fill-opacity: 1;"/><path class="point" transform="translate(284.75,113.41)" d="M3,0A3,3 0 1,1 0,-3A3,3 0 0,1 3,0Z" style="opacity: 1; stroke-width: 0px; fill: rgb(138, 132, 214); fill-opacity: 1;"/><path class="point" transform="translate(414.25,120.4)" d="M3,0A3,3 0 1,1 0,-3A3,3 0 0,1 3,0Z" style="opacity: 1; stroke-width: 0px; fill: rgb(138, 132, 214); fill-opacity: 1;"/></g><g class="text"/></g></g></g><g class="overplot"/><path class="xlines-above crisp" d="M0,0" style="fill: none;"/><path class="ylines-above crisp" d="M0,0" style="fill: none;"/><g class="overlines-above"/><g class="xaxislayer-above"><g class="xtick"><text text-anchor="middle" x="0" y="333" transform="translate(105.75,0)" style="font-family: Geomanist; font-size: 12px; fill: rgb(42, 63, 95); fill-opacity: 1; white-space: pre; opacity: 1;">0</text></g><g class="xtick"><text text-anchor="middle" x="0" y="333" style="font-family: Geomanist; font-size: 12px; fill: rgb(42, 63, 95); fill-opacity: 1; white-space: pre; opacity: 1;" transform="translate(267.63,0)">5</text></g><g class="xtick"><text text-anchor="middle" x="0" y="333" style="font-family: Geomanist; font-size: 12px; fill: rgb(42, 63, 95); fill-opacity: 1; white-space: pre; opacity: 1;" transform="translate(429.5,0)">10</text></g></g><g class="yaxislayer-above"><g class="ytick"><text text-anchor="end" x="79" y="4.199999999999999" transform="translate(0,308.94)" style="font-family: Geomanist; font-size: 12px; fill: rgb(42, 63, 95); fill-opacity: 1; white-space: pre; opacity: 1;">−6</text></g><g class="ytick"><text text-anchor="end" x="79" y="4.199999999999999" style="font-family: Geomanist; font-size: 12px; fill: rgb(42, 63, 95); fill-opacity: 1; white-space: pre; opacity: 1;" transform="translate(0,244.21)">−4</text></g><g class="ytick"><text text-anchor="end" x="79" y="4.199999999999999" style="font-family: Geomanist; font-size: 12px; fill: rgb(42, 63, 95); fill-opacity: 1; white-space: pre; opacity: 1;" transform="translate(0,179.48000000000002)">−2</text></g><g class="ytick"><text text-anchor="end" x="79" y="4.199999999999999" style="font-family: Geomanist; font-size: 12px; fill: rgb(42, 63, 95); fill-opacity: 1; white-space: pre; opacity: 1;" transform="translate(0,114.75)">0</text></g></g><g class="overaxes-above"/></g></g><g class="polarlayer"/><g class="smithlayer"/><g class="ternarylayer"/><g class="geolayer"/><g class="funnelarealayer"/><g class="pielayer"/><g class="iciclelayer"/><g class="treemaplayer"/><g class="sunburstlayer"/><g class="glimages"/><defs id="topdefs-202d6e"><g class="clips"/></defs><g class="layer-above"><g class="imagelayer"/><g class="shapelayer"/></g><g class="infolayer"><g class="g-gtitle"><text class="gtitle" x="30" y="50" text-anchor="start" dy="0em" style="font-family: Geomanist; font-size: 17px; fill: rgb(42, 63, 95); opacity: 1; font-weight: normal; white-space: pre;">RCT #2: WSAS</text></g><g class="g-xtitle"><text class="xtitle" x="300" y="360.3" text-anchor="middle" style="font-family: Geomanist; font-size: 14px; fill: rgb(42, 63, 95); opacity: 1; font-weight: normal; white-space: pre;">Week</text></g><g class="g-ytitle"><text class="ytitle" transform="rotate(-90,41.2,210)" x="41.2" y="210" text-anchor="middle" style="font-family: Geomanist; font-size: 14px; fill: rgb(42, 63, 95); opacity: 1; font-weight: normal; white-space: pre;">Mean score</text></g></g></svg>